<svg xmlns="http://www.w3.org/2000/svg" xmlns:xlink="http://www.w3.org/1999/xlink" width="60" height="45" viewBox="0 0 60 45">
    <defs>
        <path id="a" d="M53.555.457H.82v38.137h52.735z"/>
        <path id="c" d="M0 20.293v20.02h60V.273H0z"/>
    </defs>
    <g fill="none" fill-rule="evenodd">
        <g transform="translate(2.813 .481)">
            <mask id="b" fill="#fff">
                <use xlink:href="#a"/>
            </mask>
            <path fill="#FFF" d="M2.695 4.513c6.938-2.925 14.857-2.908 23.555.052v31.707c-7.63-2.88-15.54-2.87-23.555.025V4.513zm48.985 0v31.784c-4.02-1.452-8.013-2.178-11.957-2.178-3.922 0-7.796.718-11.598 2.153V4.565c8.697-2.96 16.615-2.979 23.555-.052zM1.232 38.433a.936.936 0 0 0 .874.095c8.554-3.417 16.64-3.42 24.717-.007.01.004.019.005.028.008.037.014.075.022.113.032.037.01.073.02.11.024.038.004.075.003.113.003.039 0 .076.001.114-.003.038-.005.075-.015.112-.025.038-.009.075-.017.11-.03l.03-.009c8.074-3.413 16.159-3.41 24.716.007a.936.936 0 0 0 .874-.095.936.936 0 0 0 .412-.776V3.898A.935.935 0 0 0 53 3.043C45.396-.362 36.712-.404 27.187 2.91 17.663-.403 8.98-.364 1.375 3.043a.935.935 0 0 0-.555.855v33.759c0 .31.154.602.412.776z" mask="url(#b)"/>
        </g>
        <g transform="translate(0 4.231)">
            <mask id="d" fill="#fff">
                <use xlink:href="#c"/>
            </mask>
            <path fill="#FFF" d="M59.063.274a.937.937 0 0 0-.938.938v35.39H35.141c-.045 0-.083.02-.127.027a.918.918 0 0 0-.75.174c-2.742 2.157-5.542 2.148-8.56-.024-.029-.02-.062-.024-.091-.04a.9.9 0 0 0-.173-.08.923.923 0 0 0-.188-.037c-.033-.004-.061-.02-.096-.02H1.875V1.212a.937.937 0 1 0-1.875 0V37.54c0 .517.42.937.938.937H24.87c1.774 1.218 3.524 1.836 5.242 1.836 1.717 0 3.399-.618 5.038-1.836h23.913c.518 0 .937-.42.937-.937V1.212a.937.937 0 0 0-.938-.938" mask="url(#d)"/>
        </g>
    </g>
</svg>
